{"title":"Michael.2011.BDRip.AC3.XviD.HORiZON-ArtSubs","uid":7317452,"size":1569957052,"categoryP":"video","categoryS":"movies","magnet":"?xt=urn:btih:06049e6af8f6e7f92e7efb1aa26f2ee9c15f07b6&amp;dn=Michael.2011.BDRip.AC3.XviD.HORiZON-ArtSubs&amp;tr=udp%3A%2F%2Ftracker.openbittorrent.com%3A80&amp;tr=udp%3A%2F%2Fopen.demonii.com%3A1337&amp;tr=udp%3A%2F%2Ftracker.coppersurfer.tk%3A6969&amp;tr=udp%3A%2F%2Fexodus.desync.com%3A6969","seeders":6,"leechers":1,"uploader":"lletaif","files":2,"time":1338519956,"description":"Title: Michael\n\nCountry: Austria (2011)\n\nLanguage: German\n\nSubtitle: English\n\nDirector: Markus Schleinzer\n\nWriter: Markus Schleinzer\n\nStars: Michael Fuith, David Rauchenberger and Christine Kain\n\nPlot: A drama focused on five months in the life of pedophile who keeps a 10-year-old boy locked in his basement.\n\nImdb:  &lt;a href=&quot;\nhttp://www.imdb.com/title/tt1906426/&quot; rel=&quot;nofollow&quot; target=&quot;_NEW&quot;&gt;\nhttp://www.imdb.com/title/tt1906426/&lt;/a&gt;\n\nRip Specs:\n\n\nGeneral\nComplete name                    : Michael.2011.BDRip.AC3.XviD.HORiZON-ArtSubs.avi\nFormat                           : AVI\nFormat/Info                      : Audio Video Interleave\nFile size                        : 1.46 GiB\nDuration                         : 1h 36mn\nOverall bit rate                 : 2 176 Kbps\nWriting application              : FairUse Wizard - http://fairusewizard.com\nWriting library                  : The best and REALLY easy backup tool\n\nVideo\nID                               : 0\nFormat                           : MPEG-4 Visual\nFormat profile                   : Advanced Simple@L5\nFormat settings, BVOP            : 1\nFormat settings, QPel            : No\nFormat settings, GMC             : No warppoints\nFormat settings, Matrix          : Default (MPEG)\nMuxing mode                      : Packed bitstream\nCodec ID                         : XVID\nCodec ID/Hint                    : XviD\nDuration                         : 1h 36mn\nBit rate                         : 1 719 Kbps\nWidth                            : 688 pixels\nHeight                           : 384 pixels\nDisplay aspect ratio             : 16:9\nFrame rate                       : 23.976 fps\nColor space                      : YUV\nChroma subsampling               : 4:2:0\nBit depth                        : 8 bits\nScan type                        : Progressive\nCompression mode                 : Lossy\nBits/(Pixel*Frame)               : 0.271\nStream size                      : 1.15 GiB (79%)\nWriting library                  : XviD 1.2.0.dev47 (UTC 2006-11-01)\n\nAudio\nID                               : 1\nFormat                           : AC-3\nFormat/Info                      : Audio Coding 3\nMode extension                   : CM (complete main)\nCodec ID                         : 2000\nDuration                         : 1h 36mn\nBit rate mode                    : Constant\nBit rate                         : 448 Kbps\nChannel(s)                       : 6 channels\nChannel positions                : Front: L C R, Side: L R, LFE\nSampling rate                    : 48.0 KHz\nBit depth                        : 16 bits\nCompression mode                 : Lossy\nStream size                      : 308 MiB (21%)\nAlignment                        : Split accross interleaves\nInterleave, duration             : 42 ms (1.00 video frame)\nInterleave, preload duration     : 500 ms\n","torrent":{"xt":"urn:btih:06049e6af8f6e7f92e7efb1aa26f2ee9c15f07b6","amp;dn":"Michael.2011.BDRip.AC3.XviD.HORiZON-ArtSubs","amp;tr":["udp%3A%2F%2Ftracker.openbittorrent.com%3A80","udp%3A%2F%2Fopen.demonii.com%3A1337","udp%3A%2F%2Ftracker.coppersurfer.tk%3A6969","udp%3A%2F%2Fexodus.desync.com%3A6969"],"infoHash":"06049e6af8f6e7f92e7efb1aa26f2ee9c15f07b6","infoHashBuffer":{"type":"Buffer","data":[6,4,158,106,248,246,231,249,46,126,251,26,162,111,46,233,193,95,7,182]},"announce":[],"urlList":[]}}